<?xml version="1.0" standalone="no"?>
<!DOCTYPE svg PUBLIC "-//W3C//DTD SVG 20010904//EN"
 "http://www.w3.org/TR/2001/REC-SVG-20010904/DTD/svg10.dtd">
<svg version="1.0" xmlns="http://www.w3.org/2000/svg"
 width="1024.000000pt" height="1024.000000pt" viewBox="0 0 1024.000000 1024.000000"
 preserveAspectRatio="xMidYMid meet">

<g transform="translate(0.000000,1024.000000) scale(0.100000,-0.100000)"
fill="#000000" stroke="none">
<path d="M3420 6599 c-39 -16 -150 -103 -146 -114 2 -6 -3 -20 -11 -30 -13
-17 -15 -17 -10 -2 7 18 -7 24 -18 8 -3 -6 -29 -23 -58 -40 -70 -40 -170 -130
-163 -147 3 -8 0 -14 -7 -14 -20 0 38 -51 61 -53 11 0 19 -4 16 -8 -7 -12 105
-71 122 -65 8 3 13 2 9 -3 -3 -5 37 -35 87 -67 51 -32 96 -62 100 -68 17 -26
107 7 148 55 3 3 19 14 37 24 18 10 29 23 26 28 -3 6 -1 7 5 3 10 -6 136 81
188 129 7 5 24 19 40 30 47 34 72 66 67 86 -3 10 -8 19 -12 19 -3 0 -20 14
-38 30 -18 17 -37 30 -42 30 -6 0 -11 4 -11 8 0 5 -11 14 -25 20 -33 15 -38
15 -29 0 4 -8 3 -10 -2 -5 -5 5 -9 12 -9 17 0 9 -74 70 -86 70 -4 0 -15 3 -25
7 -11 4 -15 3 -10 -5 3 -6 1 -14 -6 -18 -7 -4 -10 -4 -6 1 4 4 0 14 -10 22
-16 12 -16 13 2 6 36 -12 5 18 -38 38 -45 20 -106 24 -146 8z m100 -6 c0 -5
-17 -8 -37 -8 -21 -1 -47 -5 -58 -9 -20 -8 -20 -7 -1 8 20 16 96 23 96 9z m51
-20 c12 -16 12 -17 -1 -7 -8 6 -22 14 -30 17 -13 5 -12 6 1 6 9 1 23 -7 30
-16z m-210 -36 c-6 -8 -7 -18 -3 -22 4 -5 1 -5 -6 -1 -10 6 -10 11 -1 22 6 8
14 14 16 14 3 0 0 -6 -6 -13z m-22 -40 c0 -9 -2 -8 -6 1 -2 6 -10 9 -15 6 -7
-4 -8 -2 -4 5 9 13 26 5 25 -12z m358 -3 c15 -15 21 -21 12 -15 -9 6 -19 9
-22 6 -4 -3 -5 -2 -2 2 3 4 -5 13 -17 20 -13 7 -18 12 -11 13 7 0 25 -12 40
-26z m-203 -86 c7 -5 4 -8 -6 -8 -12 0 -18 7 -17 23 0 15 2 17 6 7 3 -8 11
-18 17 -22z m-285 9 c-2 -1 -13 -9 -24 -17 -19 -14 -19 -14 -6 3 7 9 18 17 24
17 6 0 8 -1 6 -3z m188 -19 c-3 -8 -6 -5 -6 6 -1 11 2 17 5 13 3 -3 4 -12 1
-19z m255 -5 c-6 -3 -9 -10 -5 -16 4 -7 -1 -6 -10 2 -21 17 -21 17 6 18 12 0
16 -1 9 -4z m213 -4 c11 -16 1 -19 -13 -3 -7 8 -8 14 -3 14 5 0 13 -5 16 -11z
m-715 -2 c0 -2 -10 -12 -22 -23 l-23 -19 19 23 c18 21 26 27 26 19z m745 -27
c3 -5 1 -10 -4 -10 -6 0 -11 5 -11 10 0 6 2 10 4 10 3 0 8 -4 11 -10z m-5 -45
c-7 -9 -19 -14 -26 -11 -7 3 -15 -2 -17 -10 -3 -9 -4 -8 -3 3 1 11 8 17 19 15
9 -2 20 4 23 13 4 9 9 14 12 11 3 -3 -1 -13 -8 -21z m-850 -40 c-7 -19 -6 -27
8 -34 9 -6 12 -11 6 -11 -20 0 -32 24 -23 48 5 12 11 22 13 22 3 0 1 -11 -4
-25z m790 -9 c0 -2 -7 -7 -16 -10 -8 -3 -12 -2 -9 4 6 10 25 14 25 6z m-45
-26 c3 -5 -1 -10 -10 -10 -9 0 -13 5 -10 10 3 6 8 10 10 10 2 0 7 -4 10 -10z
m-45 -5 c0 -2 -6 -8 -13 -14 -10 -8 -14 -7 -14 2 0 8 6 14 14 14 7 0 13 -1 13
-2z m20 -19 c0 -2 -7 -7 -16 -10 -8 -3 -12 -2 -9 4 6 10 25 14 25 6z m-640
-16 c0 -5 -5 -10 -11 -10 -5 0 -7 5 -4 10 3 6 8 10 11 10 2 0 4 -4 4 -10z m35
-29 c-6 -5 -25 10 -25 20 0 5 6 4 14 -3 8 -7 12 -15 11 -17z m540 0 c-3 -6
-11 -11 -16 -11 -5 0 -4 6 3 14 14 16 24 13 13 -3z m-440 -51 c3 -6 -1 -7 -9
-4 -18 7 -21 14 -7 14 6 0 13 -4 16 -10z m300 -50 c-10 -11 -21 -17 -24 -14
-3 3 3 12 13 20 28 20 32 17 11 -6z m-205 -4 c-7 -7 -13 -7 -20 0 -6 6 -3 10
10 10 13 0 16 -4 10 -10z m25 -5 c-3 -6 3 -14 12 -20 10 -6 14 -10 8 -11 -19
0 -38 18 -31 29 4 6 9 11 12 11 3 0 3 -4 -1 -9z m70 -51 c19 -8 19 -9 -2 -9
-12 -1 -25 4 -28 9 -7 12 2 12 30 0z"/>
<path d="M1289 6581 c-97 -38 -301 -149 -294 -162 3 -4 -3 -5 -14 -2 -12 3
-31 -6 -52 -25 l-34 -30 -3 -939 c-3 -989 -1 -1030 40 -1020 10 3 15 1 12 -5
-4 -6 0 -14 7 -19 18 -11 32 -11 25 -1 -3 5 1 9 9 9 10 0 12 -4 5 -12 -7 -9
-6 -16 5 -25 8 -7 15 -9 15 -4 0 5 4 4 8 -2 7 -11 194 -130 257 -164 17 -8 48
-28 70 -43 21 -15 42 -23 46 -19 3 4 2 205 -2 447 -13 774 -11 1260 6 1300 18
45 39 53 79 30 17 -10 38 -22 46 -26 8 -5 58 -32 110 -62 80 -45 205 -107 215
-107 2 0 5 7 7 15 2 13 5 12 15 -4 11 -17 10 -19 -2 -15 -8 4 -15 2 -15 -4 0
-5 8 -12 18 -16 9 -3 24 -9 32 -12 13 -5 13 -4 0 5 -8 6 -10 11 -4 11 6 0 18
-8 25 -17 10 -11 10 -14 2 -9 -7 4 -13 2 -13 -4 0 -6 8 -14 18 -17 9 -4 41
-21 70 -40 29 -18 54 -33 57 -33 3 0 27 -14 55 -31 27 -17 55 -27 61 -23 8 4
9 3 5 -5 -5 -7 9 -19 40 -33 26 -11 65 -33 87 -49 37 -27 65 -31 51 -7 -4 7
-2 8 5 4 6 -4 9 -11 6 -16 -3 -4 1 -13 9 -19 17 -14 150 -88 256 -143 41 -21
108 -58 148 -83 41 -25 78 -45 83 -45 5 0 9 -4 9 -8 0 -4 19 -18 43 -30 62
-33 101 -56 107 -63 3 -4 41 -25 84 -48 58 -31 87 -41 105 -36 17 3 21 2 13
-3 -10 -7 -8 -12 10 -23 37 -23 79 -40 87 -34 5 2 17 -5 27 -18 l19 -22 -22
19 c-26 22 -30 11 -8 -18 18 -24 19 -58 3 -101 -10 -28 -31 -42 -161 -110
-154 -79 -181 -97 -169 -110 4 -5 1 -5 -6 -1 -8 5 -77 -28 -175 -82 -89 -49
-181 -99 -205 -111 -23 -12 -40 -26 -37 -31 3 -5 0 -7 -8 -5 -15 6 -92 -51
-92 -68 0 -5 -7 -12 -15 -14 -13 -4 -13 -3 0 7 11 8 1 9 -40 5 -48 -6 -58 -4
-74 14 -23 26 -38 27 -29 4 6 -16 5 -16 -8 -3 -24 25 -45 54 -34 48 11 -7 10
601 0 680 -5 32 -13 46 -33 59 -45 27 -107 68 -112 73 -21 21 -93 59 -102 54
-7 -4 -8 -3 -4 4 4 7 -14 23 -46 42 -57 32 -73 37 -62 18 4 -8 3 -10 -2 -5 -5
5 -9 13 -9 19 0 18 -75 52 -87 40 -7 -7 -8 -69 -4 -189 4 -98 9 -396 12 -662
3 -290 9 -491 15 -503 5 -10 15 -18 22 -18 7 0 34 -13 59 -29 32 -20 48 -26
52 -18 3 7 5 6 5 -3 1 -17 18 -29 100 -71 30 -16 57 -32 60 -37 5 -8 97 -52
108 -52 2 0 1 6 -3 13 -4 7 -3 9 2 4 5 -5 9 -14 9 -20 0 -14 67 -47 110 -54
39 -6 137 35 130 55 -3 7 0 10 5 7 6 -3 23 3 39 14 16 12 32 21 35 21 17 0 86
52 81 60 -3 5 0 7 8 4 7 -2 56 19 108 48 52 29 107 59 122 67 15 8 27 18 27
23 0 5 -6 6 -12 2 -9 -5 -9 -2 1 9 7 9 19 17 25 17 6 0 4 -5 -4 -10 -13 -9
-13 -10 0 -10 9 0 57 25 108 55 51 30 112 65 135 76 23 12 44 25 47 28 3 4 36
25 74 47 38 21 90 51 115 66 25 14 92 49 149 78 56 28 100 56 97 61 -4 5 0 6
8 3 8 -3 20 2 27 11 10 12 10 15 -1 15 -11 0 -11 2 1 10 8 5 20 10 25 10 6 0
4 -4 -4 -9 -7 -5 -9 -11 -5 -14 15 -8 116 66 135 98 16 27 18 64 18 355 0 179
-2 335 -5 348 -7 25 -58 57 -76 46 -6 -4 -8 -3 -5 4 4 6 -13 20 -40 34 -27 14
-70 39 -97 56 -28 18 -56 32 -63 32 -7 0 -13 3 -13 8 0 4 -14 15 -32 25 -25
14 -33 15 -41 5 -7 -10 -8 -9 -4 3 4 11 -3 21 -19 29 -13 8 -24 17 -24 22 0 5
-4 6 -10 3 -5 -3 -10 -1 -10 4 0 6 -6 11 -14 11 -8 0 -16 4 -18 8 -6 16 -209
113 -220 106 -7 -4 -8 -3 -4 4 4 7 3 12 -3 12 -5 0 -12 -6 -15 -12 -3 -7 -3
-3 0 9 3 16 -1 23 -17 28 -24 8 -163 84 -314 173 -122 71 -166 94 -173 88 -3
-4 0 -12 8 -17 13 -9 13 -10 0 -6 -8 2 -15 11 -15 20 0 17 -65 59 -192 125
-66 34 -78 38 -68 22 3 -6 -1 -7 -10 -3 -12 4 -13 8 -5 13 8 5 0 15 -23 29
-19 11 -38 21 -41 21 -4 0 -26 13 -49 28 -70 47 -144 82 -159 77 -7 -3 -22 2
-33 10 -19 15 -19 16 3 5 13 -7 26 -9 29 -7 8 8 -141 87 -154 82 -7 -2 -12 0
-10 6 2 9 -165 110 -333 202 -30 17 -62 35 -70 42 -8 7 -40 25 -70 41 -30 16
-58 33 -62 39 -4 5 -8 7 -8 3 0 -4 -13 -3 -28 1 -19 6 -42 3 -73 -8z m46 -11
c-3 -5 -14 -10 -23 -9 -14 0 -13 2 3 9 27 11 27 11 20 0z m42 -6 c-3 -3 -12
-4 -19 -1 -8 3 -5 6 6 6 11 1 17 -2 13 -5z m-163 -39 c-10 -8 -26 -14 -34 -15
-8 0 -4 6 10 14 34 19 48 20 24 1z m316 -41 c0 -2 -9 0 -20 6 -11 6 -20 13
-20 16 0 2 9 0 20 -6 11 -6 20 -13 20 -16z m-398 -4 c-42 -26 -56 -26 -17 0
17 11 35 20 40 20 6 0 -5 -9 -23 -20z m138 -57 c0 -3 -7 -3 -15 1 -10 3 -15
-1 -15 -11 0 -9 -3 -14 -6 -10 -12 12 5 37 21 31 8 -3 15 -8 15 -11z m160 -31
c0 -1 -9 2 -20 8 -11 6 -20 15 -20 20 0 6 9 2 20 -7 11 -10 20 -19 20 -21z
m-100 14 c0 -3 -4 -8 -10 -11 -5 -3 -10 -1 -10 4 0 6 5 11 10 11 6 0 10 -2 10
-4z m-396 -37 c-18 -20 -19 -51 -19 -960 0 -516 -3 -935 -8 -930 -4 4 -6 426
-5 938 3 899 4 932 22 952 11 12 21 21 24 21 3 0 -3 -9 -14 -21z m816 -9 c8
-5 11 -10 5 -10 -5 0 -17 5 -25 10 -8 5 -10 10 -5 10 6 0 17 -5 25 -10z m-470
-27 c0 -3 -3 -3 -7 0 -3 4 -11 3 -17 -3 -8 -6 -12 -3 -13 11 -2 16 1 17 18 9
10 -6 19 -14 19 -17z m615 -52 c3 -5 2 -12 -3 -15 -5 -3 -9 1 -9 9 0 17 3 19
12 6z m-508 -63 c-3 -8 -6 -5 -6 6 -1 11 2 17 5 13 3 -3 4 -12 1 -19z m598 10
c14 -6 25 -15 25 -20 0 -5 -10 -3 -22 4 -13 7 -26 11 -30 10 -5 -1 -8 3 -8 8
0 13 3 13 35 -2z m-1008 -13 c0 -8 -4 -12 -9 -9 -5 3 -6 10 -3 15 9 13 12 11
12 -6z m300 0 c0 -8 -4 -12 -9 -9 -5 3 -6 10 -3 15 9 13 12 11 12 -6z m363 -5
c0 -5 -5 -10 -11 -10 -5 0 -7 5 -4 10 3 6 8 10 11 10 2 0 4 -4 4 -10z m559
-107 c2 -1 -5 -1 -16 0 -11 0 -20 7 -20 14 0 10 4 10 16 1 9 -7 18 -13 20 -15z
m-275 -29 c3 -8 2 -12 -4 -9 -6 3 -10 10 -10 16 0 14 7 11 14 -7z m349 -12
c15 -16 15 -18 -3 -18 -10 0 -17 2 -15 5 3 2 0 10 -6 18 -17 20 5 16 24 -5z
m-185 -37 c-3 -3 -9 2 -12 12 -6 14 -5 15 5 6 7 -7 10 -15 7 -18z m213 2 c-10
-9 -11 -8 -5 6 3 10 9 15 12 12 3 -3 0 -11 -7 -18z m158 -80 c0 -9 -2 -8 -6 1
-2 6 -10 9 -15 6 -7 -4 -8 -2 -4 5 9 13 26 5 25 -12z m-729 -11 c-7 -7 -13 -7
-20 0 -6 6 -3 10 10 10 13 0 16 -4 10 -10z m320 10 c0 -11 -19 -15 -25 -6 -3
5 1 10 9 10 9 0 16 -2 16 -4z m474 -22 c50 -28 51 -29 34 -40 -7 -4 -8 -3 -4
4 4 7 2 12 -4 12 -6 0 -28 11 -48 25 -48 32 -37 32 22 -1z m-1080 7 c3 -5 -5
-11 -19 -13 -28 -6 -35 8 -7 15 9 3 18 5 19 6 1 0 4 -3 7 -8z m-59 -33 c-4
-37 -4 -38 -15 -38 -7 0 -7 6 0 20 7 14 7 20 0 20 -5 0 -10 5 -10 10 0 6 6 10
14 10 8 0 12 -9 11 -22z m120 2 c3 -6 -1 -7 -9 -4 -18 7 -21 14 -7 14 6 0 13
-4 16 -10z m739 -18 c3 -5 -1 -9 -9 -9 -8 0 -12 4 -9 9 3 4 7 8 9 8 2 0 6 -4
9 -8z m-650 -24 c-3 -4 -11 -5 -19 -1 -21 7 -19 12 4 10 11 0 18 -5 15 -9z
m-227 -120 c-2 -24 -4 -7 -4 37 0 44 2 63 4 43 2 -21 2 -57 0 -80z m872 89
c-9 -7 -14 -17 -12 -23 2 -6 -3 -11 -10 -11 -20 0 -9 35 12 40 26 7 27 7 10
-6z m-567 -4 c-6 -2 -9 -10 -6 -15 4 -7 2 -8 -5 -4 -13 9 -5 26 12 25 9 0 8
-2 -1 -6z m1019 -16 c-10 -9 -11 -8 -5 6 3 10 9 15 12 12 3 -3 0 -11 -7 -18z
m53 -6 c4 -5 -3 -7 -14 -4 -23 6 -26 13 -6 13 8 0 17 -4 20 -9z m-1030 -16
c11 -8 16 -15 10 -15 -5 0 -18 7 -28 15 -11 8 -16 15 -10 15 5 0 18 -7 28 -15z
m443 -17 c-3 -8 -6 -5 -6 6 -1 11 2 17 5 13 3 -3 4 -12 1 -19z m667 -13 c11
-8 16 -15 10 -15 -5 0 -18 7 -28 15 -11 8 -16 15 -10 15 5 0 18 -7 28 -15z
m-564 -16 c0 -5 -4 -9 -8 -9 -5 0 -9 7 -9 15 0 8 4 12 9 9 4 -3 8 -9 8 -15z
m-429 -12 c-10 -9 -11 -8 -5 6 3 10 9 15 12 12 3 -3 0 -11 -7 -18z m579 3 c0
-5 -2 -10 -4 -10 -3 0 -8 5 -11 10 -3 6 -1 10 4 10 6 0 11 -4 11 -10z m447
-12 c-3 -8 -6 -5 -6 6 -1 11 2 17 5 13 3 -3 4 -12 1 -19z m-1577 8 c0 -2 -7
-9 -15 -16 -13 -11 -14 -10 -9 4 5 14 24 23 24 12z m895 -6 c3 -5 1 -10 -4
-10 -6 0 -11 5 -11 10 0 6 2 10 4 10 3 0 8 -4 11 -10z m385 -5 c0 -2 -9 -3
-19 -2 -11 0 -18 5 -15 9 4 6 34 0 34 -7z m346 -12 c-6 -6 -36 9 -36 18 0 5 9
4 20 -3 10 -7 18 -14 16 -15z m-855 0 c13 -16 12 -17 -3 -4 -10 7 -18 15 -18
17 0 8 8 3 21 -13z m94 -2 c-3 -6 -11 -11 -16 -11 -5 0 -4 6 3 14 14 16 24 13
13 -3z m65 4 c0 -8 -4 -15 -10 -15 -5 0 -7 7 -4 15 4 8 8 15 10 15 2 0 4 -7 4
-15z m-843 -67 c-3 -8 -6 -5 -6 6 -1 11 2 17 5 13 3 -3 4 -12 1 -19z m1671
-23 c-3 -3 -9 2 -12 12 -6 14 -5 15 5 6 7 -7 10 -15 7 -18z m-886 1 c10 6 11
4 0 -7 -10 -11 -15 -10 -30 6 -15 17 -15 18 0 6 9 -7 23 -9 30 -5z m-45 -40
c3 7 10 14 16 14 5 0 2 -8 -7 -19 -17 -18 -18 -18 -56 0 -21 10 -42 23 -45 29
-3 6 15 -1 40 -14 38 -21 47 -22 52 -10z m-737 -11 c0 -19 -2 -35 -4 -35 -2 0
-6 16 -8 35 -2 19 0 35 4 35 4 0 8 -16 8 -35z m1650 21 c0 -3 -4 -8 -10 -11
-5 -3 -10 -1 -10 4 0 6 5 11 10 11 6 0 10 -2 10 -4z m-32 -37 c-3 -8 -7 -3
-11 10 -4 17 -3 21 5 13 5 -5 8 -16 6 -23z m149 16 c0 -8 -4 -12 -9 -9 -5 3
-6 10 -3 15 9 13 12 11 12 -6z m-2133 -3 c3 -5 -1 -9 -9 -9 -8 0 -12 4 -9 9 3
4 7 8 9 8 2 0 6 -4 9 -8z m1152 -39 c-7 -7 -26 7 -26 19 0 6 6 6 15 -2 9 -7
13 -15 11 -17z m1129 -31 c-3 -3 -11 0 -18 7 -9 10 -8 11 6 5 10 -3 15 -9 12
-12z m-999 -40 c-5 -4 -66 26 -66 33 0 3 16 -3 35 -12 19 -9 33 -18 31 -21z
m1063 12 c14 -12 -19 -1 -35 12 -18 14 -18 14 6 3 14 -6 27 -13 29 -15z
m-1982 -6 c-3 -8 -6 -5 -6 6 -1 11 2 17 5 13 3 -3 4 -12 1 -19z m0 -65 c-3
-10 -5 -2 -5 17 0 19 2 27 5 18 2 -10 2 -26 0 -35z m1048 -9 l16 -25 -25 16
c-14 10 -23 21 -20 26 8 13 10 12 29 -17z m1125 -38 c0 -2 -8 -10 -17 -17 -16
-13 -17 -12 -4 4 13 16 21 21 21 13z m-1040 -16 c8 -5 11 -10 5 -10 -5 0 -17
5 -25 10 -8 5 -10 10 -5 10 6 0 17 -5 25 -10z m500 4 c0 -8 -19 -13 -24 -6 -3
5 1 9 9 9 8 0 15 -2 15 -3z m611 -41 c13 -16 12 -17 -3 -4 -10 7 -18 15 -18
17 0 8 8 3 21 -13z m55 -31 c-4 -3 -14 2 -24 12 -16 18 -16 18 6 6 13 -6 21
-14 18 -18z m-2299 -29 c-3 -10 -5 -4 -5 12 0 17 2 24 5 18 2 -7 2 -21 0 -30z
m475 -183 c2 -96 1 -155 -3 -130 -7 43 -10 352 -3 320 1 -8 4 -94 6 -190z
m1851 185 c-3 -9 -8 -14 -10 -11 -3 3 -2 9 2 15 9 16 15 13 8 -4z m-1816 -1
c-3 -3 -12 -4 -19 -1 -8 3 -5 6 6 6 11 1 17 -2 13 -5z m1882 -17 c8 -10 7 -14
-4 -14 -8 0 -12 4 -9 8 2 4 -2 10 -8 12 -8 4 -9 6 -2 6 6 1 17 -5 23 -12z
m-989 -27 c9 -6 20 -5 29 3 9 7 12 7 8 1 -9 -16 23 -56 40 -50 8 3 12 2 8 -3
-3 -5 1 -12 7 -14 9 -4 9 -6 1 -6 -6 -1 -25 10 -41 24 -17 14 -34 25 -39 25
-5 0 -18 7 -29 15 -21 16 -8 20 16 5z m1080 -31 c0 -6 -4 -7 -10 -4 -5 3 -10
11 -10 16 0 6 5 7 10 4 6 -3 10 -11 10 -16z m-1836 -18 c-2 -3 -12 3 -22 13
-16 17 -16 18 5 5 12 -7 20 -15 17 -18z m-744 5 c0 -3 -4 -8 -10 -11 -5 -3
-10 -1 -10 4 0 6 5 11 10 11 6 0 10 -2 10 -4z m2587 -448 c-1 -79 -3 -15 -3
142 0 157 2 221 3 143 2 -79 2 -207 0 -285z m-927 386 c0 -2 -9 0 -20 6 -11 6
-20 13 -20 16 0 2 9 0 20 -6 11 -6 20 -13 20 -16z m-1660 -14 c-6 -11 -13 -20
-16 -20 -2 0 0 9 6 20 6 11 13 20 16 20 2 0 0 -9 -6 -20z m1715 -2 c5 4 5 1 1
-6 -5 -9 -12 -9 -27 -2 -10 6 -19 13 -19 16 0 2 8 0 19 -5 10 -6 22 -7 26 -3z
m55 -43 c7 -8 9 -15 6 -15 -4 0 -14 7 -22 15 -9 8 -11 15 -6 15 5 0 15 -7 22
-15z m-774 -59 c2 -13 1 -13 -3 -1 -2 8 -8 13 -13 10 -5 -3 -14 5 -21 17 -12
22 -12 22 12 7 13 -9 25 -24 25 -33z m870 -3 c-4 -4 -76 37 -76 44 0 2 18 -6
40 -18 22 -12 38 -24 36 -26z m-1769 -55 c-2 -13 -4 -5 -4 17 -1 22 1 32 4 23
2 -10 2 -28 0 -40z m1838 32 c-3 -5 -12 -10 -18 -10 -7 0 -6 4 3 10 19 12 23
12 15 0z m-928 -497 c-1 -93 -3 -17 -3 167 0 184 2 260 3 168 2 -93 2 -243 0
-335z m1458 457 c-3 -5 -12 -10 -18 -10 -7 0 -6 4 3 10 19 12 23 12 15 0z
m-441 -9 c4 -5 -3 -7 -14 -4 -23 6 -26 13 -6 13 8 0 17 -4 20 -9z m-1916 -278
l-2 -248 -6 210 c-3 116 -3 227 -1 248 8 88 11 21 9 -210z m480 -263 c-1 -239
-4 -381 -5 -315 -7 296 -7 772 -1 762 4 -7 7 -208 6 -447z m1506 381 c-4 -14
-8 -31 -9 -37 -1 -16 -29 -41 -42 -37 -6 2 -14 -1 -18 -6 -3 -6 -14 -11 -23
-11 -9 1 3 11 28 23 27 13 46 30 48 42 2 11 7 38 10 60 4 30 7 34 10 16 2 -12
0 -35 -4 -50z m-1250 22 c2 -11 11 -18 23 -17 11 1 20 -4 20 -11 0 -14 -34 -8
-44 9 -9 14 -15 52 -7 44 3 -3 7 -14 8 -25z m-147 -28 c0 -8 -4 -12 -9 -9 -5
3 -6 10 -3 15 9 13 12 11 12 -6z m1568 -55 c-3 -5 -12 -10 -18 -10 -7 0 -6 4
3 10 19 12 23 12 15 0z m-2265 -4 c0 -3 -4 -8 -10 -11 -5 -3 -10 -1 -10 4 0 6
5 11 10 11 6 0 10 -2 10 -4z m-195 -25 c3 -5 2 -12 -3 -15 -5 -3 -9 1 -9 9 0
17 3 19 12 6z m2135 -25 c0 -2 -8 -10 -17 -17 -16 -13 -17 -12 -4 4 13 16 21
21 21 13z m-990 -10 c0 -3 -4 -8 -10 -11 -5 -3 -10 -1 -10 4 0 6 5 11 10 11 6
0 10 -2 10 -4z m1520 -5 c0 -6 -4 -12 -8 -15 -5 -3 -9 1 -9 9 0 8 4 15 9 15 4
0 8 -4 8 -9z m-2686 -17 c3 -8 2 -12 -4 -9 -6 3 -10 10 -10 16 0 14 7 11 14
-7z m2803 -71 c-3 -10 -5 -4 -5 12 0 17 2 24 5 18 2 -7 2 -21 0 -30z m-820 -5
c-3 -8 -6 -5 -6 6 -1 11 2 17 5 13 3 -3 4 -12 1 -19z m-1777 -8 c0 -5 -5 -10
-11 -10 -5 0 -7 5 -4 10 3 6 8 10 11 10 2 0 4 -4 4 -10z m2235 0 c3 -5 1 -10
-4 -10 -6 0 -11 5 -11 10 0 6 2 10 4 10 3 0 8 -4 11 -10z m-582 -55 c-3 -9 -8
-14 -10 -11 -3 3 -2 9 2 15 9 16 15 13 8 -4z m84 0 c-6 -7 -15 -11 -19 -8 -14
8 -8 19 12 20 16 1 17 -1 7 -12z m815 -17 c-22 -22 -22 -22 -39 -3 -16 17 -16
18 -1 6 15 -11 20 -10 33 3 9 9 19 16 23 16 4 0 -4 -10 -16 -22z m-925 -1 c0
-7 -9 -13 -19 -13 -18 0 -18 1 -2 13 10 7 18 13 19 13 1 0 2 -6 2 -13z m112
-54 c-7 -10 -14 -19 -15 -21 -1 -2 -4 4 -8 13 -3 9 -2 13 3 10 5 -3 12 -1 16
5 3 5 9 10 12 10 3 0 -1 -8 -8 -17z m-91 -18 c-3 -3 -9 2 -12 12 -6 14 -5 15
5 6 7 -7 10 -15 7 -18z m-1865 2 c-5 -11 -7 -11 -28 1 -19 11 -18 12 5 8 14
-1 24 -6 23 -9z m218 -10 c-10 -9 -11 -8 -5 6 3 10 9 15 12 12 3 -3 0 -11 -7
-18z m-194 -12 c0 -8 -4 -12 -9 -9 -5 3 -6 10 -3 15 9 13 12 11 12 -6z m2569
-10 c-11 -8 -29 -14 -40 -14 -20 1 -21 1 -1 6 11 3 24 9 30 14 5 5 14 9 20 9
5 0 1 -7 -9 -15z m-2525 -22 c13 -15 12 -15 -8 -4 -24 12 -29 21 -14 21 5 0
15 -7 22 -17z m268 -20 c-1 -37 -1 -37 -8 -8 -7 28 -5 45 5 45 2 0 3 -17 3
-37z m846 27 c-3 -5 -12 -10 -18 -10 -7 0 -6 4 3 10 19 12 23 12 15 0z m1345
-10 c8 -5 11 -10 5 -10 -5 0 -17 5 -25 10 -8 5 -10 10 -5 10 6 0 17 -5 25 -10z
m-2415 -20 c3 -6 -1 -7 -9 -4 -18 7 -21 14 -7 14 6 0 13 -4 16 -10z m2385 -2
c0 -4 -4 -8 -9 -8 -6 0 -12 4 -15 8 -3 5 1 9 9 9 8 0 15 -4 15 -9z m-964 -20
c4 -7 3 -8 -4 -4 -7 4 -12 2 -12 -5 0 -7 -3 -10 -6 -6 -6 5 3 27 11 27 2 0 7
-5 11 -12z m934 -2 c0 -9 -30 -14 -35 -6 -4 6 3 10 14 10 12 0 21 -2 21 -4z
m-977 -31 c-3 -9 -8 -14 -10 -11 -3 3 -2 9 2 15 9 16 15 13 8 -4z m917 5 c0
-5 -10 -15 -22 -21 -23 -12 -23 -12 -4 10 21 23 26 26 26 11z m-2190 -6 c0 -8
-19 -13 -24 -6 -3 5 1 9 9 9 8 0 15 -2 15 -3z m1681 -11 c13 -16 12 -17 -3 -4
-10 7 -18 15 -18 17 0 8 8 3 21 -13z m46 -5 c2 -17 0 -19 -7 -8 -5 8 -6 18 -4
22 8 12 10 10 11 -14z m-1700 -4 c-3 -3 -12 -4 -19 -1 -8 3 -5 6 6 6 11 1 17
-2 13 -5z m90 -31 c-3 -10 -5 -4 -5 12 0 17 2 24 5 18 2 -7 2 -21 0 -30z
m1070 11 c-3 -3 -12 -4 -19 -1 -8 3 -5 6 6 6 11 1 17 -2 13 -5z m848 -34 c3
-5 -1 -10 -10 -10 -9 0 -13 5 -10 10 3 6 8 10 10 10 2 0 7 -4 10 -10z m-1910
-18 c-3 -3 -11 0 -18 7 -9 10 -8 11 6 5 10 -3 15 -9 12 -12z m1615 3 c-14 -17
-30 -20 -30 -4 0 5 4 8 9 4 5 -3 12 -1 16 5 3 5 9 10 12 10 3 0 0 -7 -7 -15z
m-70 1 c0 -2 -7 -6 -15 -10 -8 -3 -15 -1 -15 4 0 6 7 10 15 10 8 0 15 -2 15
-4z m307 -36 c-14 -11 -29 -20 -33 -20 -4 0 3 9 16 20 13 11 27 20 33 20 5 0
-2 -9 -16 -20z m-1090 -52 c-3 -8 -6 -5 -6 6 -1 11 2 17 5 13 3 -3 4 -12 1
-19z m-138 -22 c-3 -3 -11 5 -18 17 -13 21 -12 21 5 5 10 -10 16 -20 13 -22z
m312 17 c13 -16 12 -17 -3 -4 -10 7 -18 15 -18 17 0 8 8 3 21 -13z m672 0 c-3
-7 -6 -13 -8 -13 -2 0 -5 6 -8 13 -3 8 1 14 8 14 7 0 11 -6 8 -14z m127 -4
c-7 -11 -14 -19 -16 -16 -7 7 7 37 17 37 6 0 5 -9 -1 -21z m-946 -8 c-10 -10
-21 -16 -24 -14 -3 3 4 11 14 19 28 20 33 17 10 -5z m872 -16 c-1 -8 -6 -18
-11 -22 -4 -4 -5 -2 -1 5 4 6 2 12 -4 12 -6 0 -8 5 -5 10 9 15 24 12 21 -5z
m-31 -46 c-4 -5 -14 -8 -23 -8 -15 1 -15 2 1 6 9 2 14 9 11 15 -4 7 -2 8 5 4
6 -4 9 -12 6 -17z m-884 -37 c-7 -2 -18 1 -23 6 -8 8 -4 9 13 5 13 -4 18 -8
10 -11z m683 -77 c-10 -8 -23 -14 -29 -14 -5 0 -4 3 3 6 6 2 9 10 6 15 -4 6
-2 8 4 4 6 -3 14 -1 17 5 4 5 10 8 13 5 3 -4 -3 -13 -14 -21z m-484 11 c0 -2
-7 -7 -16 -10 -8 -3 -12 -2 -9 4 6 10 25 14 25 6z m-290 -57 c17 -13 18 -17 5
-10 -33 17 -51 31 -40 31 6 0 21 -10 35 -21z m685 -1 c-25 -15 -47 -19 -39 -7
3 5 9 7 14 4 5 -3 11 -1 15 5 3 5 12 10 18 10 7 0 3 -6 -8 -12z m-635 -28 c0
-5 -2 -10 -4 -10 -3 0 -8 5 -11 10 -3 6 -1 10 4 10 6 0 11 -4 11 -10z m279 -3
c8 -10 7 -14 -2 -14 -8 0 -14 6 -14 14 0 7 1 13 2 13 2 0 8 -6 14 -13z m-249
-7 c0 -5 -2 -10 -4 -10 -3 0 -8 5 -11 10 -3 6 -1 10 4 10 6 0 11 -4 11 -10z
m530 -5 c0 -7 -81 -47 -86 -43 -2 3 15 14 39 26 46 24 47 24 47 17z m-486 -17
c-3 -5 10 -15 30 -23 19 -8 37 -19 40 -24 4 -5 -16 1 -43 15 -54 26 -72 44
-42 41 11 0 17 -5 15 -9z m143 -84 c-3 -3 -12 -4 -19 -1 -8 3 -5 6 6 6 11 1
17 -2 13 -5z m149 -19 c-23 -18 -36 -18 -56 -4 -12 8 -10 9 7 4 13 -3 31 -2
40 4 26 15 31 13 9 -4z m-59 -21 c-3 -3 -12 -4 -19 -1 -8 3 -5 6 6 6 11 1 17
-2 13 -5z"/>
<path d="M4770 6118 c0 -205 4 -460 7 -565 l6 -193 84 0 83 0 -3 413 c-1 226
-5 422 -9 433 -5 18 -3 21 15 16 20 -5 20 -6 1 -13 -10 -4 -13 -8 -6 -8 6 -1
11 -4 10 -8 -1 -5 3 -19 9 -33 6 -14 27 -65 46 -115 62 -158 86 -207 100 -199
9 6 8 3 -1 -8 -11 -14 -8 -26 17 -77 17 -33 37 -77 45 -98 8 -21 24 -64 36
-95 l22 -56 74 -4 74 -3 20 47 c11 26 20 49 20 52 0 3 11 29 23 58 48 107 90
204 109 253 25 65 66 169 86 223 9 23 20 42 24 42 5 0 8 -184 8 -410 l0 -410
85 0 85 0 0 565 0 565 -113 0 -113 0 -21 -47 c-11 -27 -35 -84 -52 -128 -18
-44 -36 -89 -41 -100 -70 -157 -111 -271 -104 -292 4 -13 3 -15 -4 -5 -7 10
-15 1 -31 -34 -13 -26 -24 -55 -26 -63 -2 -9 -7 -25 -11 -35 -5 -14 -4 -17 4
-12 7 4 12 13 12 20 0 7 7 21 15 32 13 17 14 16 4 -13 -12 -37 -30 -55 -44
-45 -12 8 -49 90 -104 227 -56 142 -82 197 -88 192 -2 -3 0 -14 6 -25 6 -12
11 -24 11 -29 -1 -4 -8 5 -16 20 -11 21 -12 32 -5 41 8 10 4 29 -16 72 -15 33
-28 64 -29 70 -1 6 -15 42 -32 80 l-31 69 -121 3 -121 3 1 -373z m233 355 c3
-5 -43 -8 -101 -8 l-107 0 -6 -45 -6 -45 -1 53 -2 52 109 0 c61 0 112 -3 114
-7z m825 -550 l-3 -558 -2 552 -3 552 -103 4 -102 3 108 2 107 2 -2 -557z
m-779 437 c0 -10 -3 -8 -9 5 -12 27 -12 43 0 25 5 -8 9 -22 9 -30z m541 6 c0
-3 -4 -8 -10 -11 -5 -3 -10 -1 -10 4 0 6 5 11 10 11 6 0 10 -2 10 -4z m-530
-35 c0 -6 -4 -12 -8 -15 -5 -3 -9 1 -9 9 0 8 4 15 9 15 4 0 8 -4 8 -9z m483
-56 c-3 -9 -8 -14 -10 -11 -3 3 -2 9 2 15 9 16 15 13 8 -4z m-756 -42 c-3 -10
-5 -4 -5 12 0 17 2 24 5 18 2 -7 2 -21 0 -30z m323 -21 c0 -15 -2 -15 -10 -2
-13 20 -13 33 0 25 6 -3 10 -14 10 -23z m405 -14 c-10 -13 -14 -16 -11 -8 3 8
9 24 13 35 4 11 8 14 11 7 2 -6 -4 -22 -13 -34z m-728 -45 c-3 -10 -5 -2 -5
17 0 19 2 27 5 18 2 -10 2 -26 0 -35z m873 43 c0 -11 -19 -15 -25 -6 -3 5 1
10 9 10 9 0 16 -2 16 -4z m-26 -46 c-6 -6 -15 -5 -24 1 -12 9 -12 10 4 5 14
-5 17 -3 12 11 -6 15 -5 16 5 6 8 -8 10 -16 3 -23z m53 -582 c-1 -112 -2 -21
-2 202 0 223 1 314 2 203 2 -112 2 -294 0 -405z m-900 465 c-2 -16 -4 -5 -4
22 0 28 2 40 4 28 2 -13 2 -35 0 -50z m248 37 c-3 -5 -12 -10 -18 -10 -7 0 -6
4 3 10 19 12 23 12 15 0z m415 -27 c-11 -17 -11 -17 -6 0 3 10 6 24 7 30 0 9
2 9 5 0 3 -7 0 -20 -6 -30z m134 -7 c-3 -9 -10 -13 -15 -10 -5 3 -3 11 4 19
15 16 19 13 11 -9z m-153 -43 c-12 -20 -14 -14 -5 12 4 9 9 14 11 11 3 -2 0
-13 -6 -23z m-222 -23 c11 -24 11 -24 -3 -6 -9 11 -16 24 -16 30 0 12 5 7 19
-24z m-422 -32 c-3 -8 -6 -5 -6 6 -1 11 2 17 5 13 3 -3 4 -12 1 -19z m311 -53
c-3 -3 -9 2 -12 12 -6 14 -5 15 5 6 7 -7 10 -15 7 -18z m146 -1 c9 -24 2 -26
-12 -4 -7 11 -8 20 -3 20 5 0 12 -7 15 -16z m139 1 c-3 -9 -8 -14 -10 -11 -3
3 -2 9 2 15 9 16 15 13 8 -4z m118 -52 c-12 -20 -14 -14 -5 12 4 9 9 14 11 11
3 -2 0 -13 -6 -23z m-706 -3 c3 -5 1 -10 -4 -10 -6 0 -11 5 -11 10 0 6 2 10 4
10 3 0 8 -4 11 -10z m343 -41 c-3 -8 -7 -3 -11 10 -4 17 -3 21 5 13 5 -5 8
-16 6 -23z m-341 -16 c-3 -10 -5 -4 -5 12 0 17 2 24 5 18 2 -7 2 -21 0 -30z
m627 -127 c-9 -26 -18 -45 -21 -42 -3 3 3 25 12 51 23 59 30 53 9 -9z m-227
28 c-3 -4 -2 -16 4 -28 10 -20 9 -20 -5 -2 -14 17 -13 36 1 36 4 0 3 -3 0 -6z
m-400 -141 c-3 -10 -5 -2 -5 17 0 19 2 27 5 18 2 -10 2 -26 0 -35z m452 2 c0
-5 -6 -1 -14 9 -8 11 -15 24 -15 30 0 5 7 1 15 -10 8 -10 14 -23 14 -29z m128
0 c-5 -11 -20 -15 -59 -13 l-53 2 53 3 c40 3 52 8 52 20 0 9 3 14 6 10 4 -3 4
-13 1 -22z m-580 -147 c-2 -13 -4 -5 -4 17 -1 22 1 32 4 23 2 -10 2 -28 0 -40z
m930 -14 c-3 -3 -12 -4 -19 -1 -8 3 -5 6 6 6 11 1 17 -2 13 -5z"/>
<path d="M6248 6234 c-42 -15 -116 -59 -138 -83 -9 -9 -26 -37 -38 -63 -31
-67 -30 -141 3 -203 22 -40 66 -88 85 -91 3 0 22 -8 42 -17 21 -10 70 -21 110
-27 225 -31 286 -78 240 -183 -15 -34 -30 -49 -64 -66 -24 -11 -52 -21 -62
-21 -11 0 -15 -4 -10 -12 6 -10 5 -10 -7 -1 -8 6 -33 14 -56 17 -74 9 -112 41
-120 105 l-6 41 -99 0 -99 0 6 -37 c8 -54 44 -124 78 -152 16 -14 36 -31 43
-39 10 -9 24 -12 42 -8 18 4 22 4 13 -3 -27 -18 60 -36 174 -36 99 0 118 3
183 29 127 51 175 120 175 250 0 58 -38 143 -62 138 -7 -1 -9 2 -6 8 10 16
-22 36 -95 59 -57 18 -173 45 -235 55 -35 6 -73 24 -95 46 -39 39 -17 126 40
155 50 26 141 30 185 10 39 -19 75 -66 75 -99 0 -17 5 -18 53 -12 28 3 67 6
86 6 32 0 33 1 27 33 -11 60 -27 90 -67 130 -29 27 -57 37 -43 15 4 -7 3 -8
-5 -4 -6 4 -9 11 -6 16 7 11 -70 52 -79 43 -3 -3 -11 -1 -18 4 -19 15 -206 13
-250 -3z m192 0 c-36 -7 -139 -10 -128 -2 7 4 42 7 78 7 36 -1 58 -3 50 -5z
m-170 -18 c0 -3 -4 -8 -10 -11 -5 -3 -10 -1 -10 4 0 6 5 11 10 11 6 0 10 -2
10 -4z m371 -63 c13 -16 12 -17 -3 -4 -10 7 -18 15 -18 17 0 8 8 3 21 -13z
m-251 -19 c0 -2 -7 -4 -15 -4 -8 0 -15 4 -15 10 0 5 7 7 15 4 8 -4 15 -8 15
-10z m37 0 c-3 -3 -12 -4 -19 -1 -8 3 -5 6 6 6 11 1 17 -2 13 -5z m59 -10 c19
-15 19 -15 -1 -6 -11 5 -27 12 -35 15 -13 5 -13 6 1 6 8 1 24 -6 35 -15z m188
-10 c3 -8 2 -12 -4 -9 -6 3 -10 10 -10 16 0 14 7 11 14 -7z m-379 -4 c-3 -5
-12 -10 -18 -10 -7 0 -6 4 3 10 19 12 23 12 15 0z m240 -20 c-3 -5 0 -10 7
-10 8 0 14 -9 15 -20 2 -20 1 -20 -17 2 -16 20 -18 38 -4 38 3 0 2 -4 -1 -10z
m-304 -33 c-10 -19 -21 -43 -24 -53 -3 -10 -5 -5 -4 13 1 17 5 29 9 27 4 -3 8
1 8 8 0 12 18 38 27 38 1 0 -6 -15 -16 -33z m-154 -29 c-3 -8 -6 -5 -6 6 -1
11 2 17 5 13 3 -3 4 -12 1 -19z m633 -8 c0 -5 -2 -10 -4 -10 -3 0 -8 5 -11 10
-3 6 -1 10 4 10 6 0 11 -4 11 -10z m-33 -6 c-3 -3 -12 -4 -19 -1 -8 3 -5 6 6
6 11 1 17 -2 13 -5z m-464 -58 c9 -7 17 -17 17 -21 0 -4 -6 -2 -14 4 -8 7 -16
8 -18 4 -3 -4 -3 -3 -2 4 2 6 -2 14 -9 17 -7 2 -7 5 -2 5 6 0 18 -6 28 -13z
m-123 -56 c6 -11 8 -20 6 -20 -3 0 -10 9 -16 20 -6 11 -8 20 -6 20 3 0 10 -9
16 -20z m206 -6 c18 -14 18 -14 -6 -3 -31 14 -36 19 -24 19 6 0 19 -7 30 -16z
m61 -20 c-3 -3 -12 -4 -19 -1 -8 3 -5 6 6 6 11 1 17 -2 13 -5z m-239 -29 c-3
-3 -9 2 -12 12 -6 14 -5 15 5 6 7 -7 10 -15 7 -18z m355 8 c-7 -2 -21 -2 -30
0 -10 3 -4 5 12 5 17 0 24 -2 18 -5z m82 -23 c3 -6 -1 -7 -9 -4 -18 7 -21 14
-7 14 6 0 13 -4 16 -10z m-318 -46 c-3 -3 -12 -4 -19 -1 -8 3 -5 6 6 6 11 1
17 -2 13 -5z m166 -31 c-7 -2 -21 -2 -30 0 -10 3 -4 5 12 5 17 0 24 -2 18 -5z
m316 -58 c0 -5 -6 1 -14 15 -8 14 -14 30 -14 35 0 6 6 -1 14 -15 8 -14 14 -29
14 -35z m-556 -82 c-7 -2 -19 -2 -25 0 -7 3 -2 5 12 5 14 0 19 -2 13 -5z m57
-2 c0 -6 -5 -13 -12 -17 -6 -4 -8 -3 -4 4 3 5 0 13 -6 15 -8 3 -6 6 5 6 9 1
17 -3 17 -8z m507 -43 c-3 -7 -5 -2 -5 12 0 14 2 19 5 13 2 -7 2 -19 0 -25z
m-13 -40 c-19 -62 -70 -97 -70 -48 0 10 4 16 8 14 4 -3 8 2 8 10 0 9 7 16 16
16 14 0 14 -1 0 -16 -9 -8 -16 -23 -16 -32 1 -15 3 -14 16 3 9 11 20 32 26 48
12 32 22 37 12 5z m-161 -16 c-10 -11 -22 -17 -26 -14 -5 2 0 10 10 18 26 20
36 17 16 -4z m-428 -62 l30 -35 -28 25 c-16 14 -33 34 -39 45 -11 21 -10 20
37 -35z m215 17 c13 -5 13 -6 -1 -6 -8 -1 -24 6 -35 15 -19 15 -19 15 1 6 11
-5 27 -12 35 -15z m117 -3 c-3 -3 -12 -4 -19 -1 -8 3 -5 6 6 6 11 1 17 -2 13
-5z m174 -34 c-12 -11 -28 -17 -35 -13 -7 5 -4 9 9 11 11 2 24 8 30 13 5 5 11
9 15 9 3 -1 -6 -9 -19 -20z m-61 -14 c0 -9 -32 -36 -42 -36 -6 0 0 9 13 20 25
21 29 23 29 16z m-273 -42 c-3 -3 -12 -4 -19 -1 -8 3 -5 6 6 6 11 1 17 -2 13
-5z m66 -11 c-7 -2 -21 -2 -30 0 -10 3 -4 5 12 5 17 0 24 -2 18 -5z"/>
<path d="M4955 4859 c-54 -12 -95 -30 -95 -40 0 -5 8 -6 18 -3 14 5 14 4 2 -4
-8 -6 -18 -9 -22 -6 -15 10 -46 -16 -67 -56 -16 -30 -21 -59 -21 -112 0 -119
40 -175 154 -212 27 -9 61 -18 75 -20 126 -18 156 -39 156 -111 0 -24 4 -41 9
-37 5 3 6 0 2 -7 -5 -7 -11 -10 -14 -7 -3 3 -14 -1 -24 -11 -10 -9 -39 -22
-65 -29 -27 -6 -47 -17 -45 -24 1 -6 -2 -9 -7 -5 -6 3 -8 12 -4 20 3 10 -1 15
-11 15 -31 0 -66 32 -78 72 l-12 41 -75 -7 c-41 -3 -76 -8 -79 -10 -8 -8 28
-101 53 -138 16 -23 46 -47 82 -65 50 -24 70 -28 143 -28 76 0 91 4 145 32 97
51 134 106 136 205 2 67 -19 118 -64 154 -35 28 -161 79 -219 89 -64 12 -118
55 -118 95 0 84 121 127 194 69 13 -10 31 -16 40 -13 9 3 16 1 16 -6 0 -6 -4
-8 -10 -5 -13 8 -13 -11 0 -36 9 -16 22 -19 80 -19 63 0 70 2 70 20 0 24 -41
110 -53 110 -4 0 -5 -6 -1 -12 5 -9 2 -9 -9 1 -18 15 -23 26 -7 16 6 -3 10 -2
10 4 0 23 -64 60 -129 75 -77 18 -97 18 -156 5z m105 -7 c0 -5 -13 -7 -30 -4
-16 2 -30 6 -30 8 0 2 14 4 30 4 17 0 30 -4 30 -8z m-100 -6 c0 -3 -4 -8 -10
-11 -5 -3 -10 -1 -10 4 0 6 5 11 10 11 6 0 10 -2 10 -4z m137 -2 c-3 -3 -12
-4 -19 -1 -8 3 -5 6 6 6 11 1 17 -2 13 -5z m40 -10 c-3 -3 -12 -4 -19 -1 -8 3
-5 6 6 6 11 1 17 -2 13 -5z m-297 -48 c0 -2 -8 -10 -17 -17 -16 -13 -17 -12
-4 4 13 16 21 21 21 13z m157 -32 c-3 -3 -12 -4 -19 -1 -8 3 -5 6 6 6 11 1 17
-2 13 -5z m124 -21 c13 -17 13 -17 -6 -3 -11 8 -22 16 -24 17 -2 2 0 3 6 3 6
0 17 -8 24 -17z m-180 -160 c13 -16 12 -17 -3 -4 -17 13 -22 21 -14 21 2 0 10
-8 17 -17z m-65 -104 c19 -22 19 -22 -3 -10 -13 6 -23 16 -23 21 0 15 5 12 26
-11z m375 -26 l24 -26 -27 19 c-15 10 -28 22 -28 27 0 12 5 8 31 -20z m-131
-43 c18 -12 2 -12 -25 0 -13 6 -15 9 -5 9 8 0 22 -4 30 -9z m177 -102 c-3 -7
-5 -2 -5 12 0 14 2 19 5 13 2 -7 2 -19 0 -25z m-120 -20 c-3 -8 -6 -5 -6 6 -1
11 2 17 5 13 3 -3 4 -12 1 -19z m-377 -50 c0 -19 -2 -20 -10 -8 -13 19 -13 30
0 30 6 0 10 -10 10 -22z m325 -28 c-3 -5 -12 -10 -18 -10 -7 0 -6 4 3 10 19
12 23 12 15 0z m138 -15 c-3 -9 -8 -14 -10 -11 -3 3 -2 9 2 15 9 16 15 13 8
-4z m-180 -2 c-7 -2 -19 -2 -25 0 -7 3 -2 5 12 5 14 0 19 -2 13 -5z m-207 -54
c3 -6 -5 -3 -20 6 -14 10 -26 19 -26 22 0 7 39 -17 46 -28z m354 27 c0 -2 -12
-11 -27 -20 l-28 -17 24 20 c23 21 31 25 31 17z m-90 -51 c-7 -9 -15 -13 -19
-10 -3 3 1 10 9 15 21 14 24 12 10 -5z m-72 -22 c-10 -2 -28 -2 -40 0 -13 2
-5 4 17 4 22 1 32 -1 23 -4z"/>
<path d="M6325 4865 c-5 -2 -28 -7 -50 -10 -33 -6 -37 -9 -20 -15 14 -6 15 -9
5 -9 -9 -1 -20 3 -26 9 -14 14 -94 -42 -121 -87 -18 -29 -23 -53 -23 -103 0
-46 3 -61 10 -50 5 8 10 10 10 5 0 -6 -5 -16 -11 -22 -15 -15 10 -61 60 -106
42 -38 107 -63 204 -77 41 -6 64 -15 78 -32 15 -17 22 -19 28 -9 12 19 21 -11
19 -62 l-1 -42 -7 50 c-6 47 -7 48 -8 12 -1 -22 -10 -52 -19 -68 -18 -29 -65
-55 -82 -45 -5 4 -12 2 -16 -4 -4 -6 -19 -5 -41 5 -20 8 -40 14 -46 12 -11 -2
-16 12 -25 71 -6 36 -16 38 -120 26 -51 -7 -52 -8 -46 -33 13 -54 43 -111 74
-140 32 -31 57 -42 43 -19 -4 7 -3 8 5 4 6 -4 9 -11 6 -16 -21 -33 203 -48
261 -17 17 9 34 13 38 10 3 -4 6 -1 6 4 0 6 -6 14 -12 17 -7 3 -3 3 8 1 26 -7
73 34 99 84 32 64 19 237 -17 215 -6 -4 -8 -3 -5 3 18 29 -129 108 -238 127
-115 22 -147 134 -50 180 62 30 138 1 165 -64 12 -29 14 -30 81 -30 66 0 69 1
69 24 0 30 -20 86 -30 86 -5 0 -12 9 -15 20 -16 51 -180 115 -240 95z m30 -15
c-16 -4 -41 -8 -55 -8 -22 0 -22 1 5 8 17 4 41 8 55 8 22 0 22 -1 -5 -8z m62
-6 c-3 -3 -12 -4 -19 -1 -8 3 -5 6 6 6 11 1 17 -2 13 -5z m53 -14 c18 -12 2
-12 -25 0 -13 6 -15 9 -5 9 8 0 22 -4 30 -9z m-124 -68 c-10 -2 -22 0 -28 6
-6 6 0 7 19 4 21 -5 23 -7 9 -10z m67 -9 c-7 -2 -21 -2 -30 0 -10 3 -4 5 12 5
17 0 24 -2 18 -5z m-296 -45 c-3 -8 -6 -5 -6 6 -1 11 2 17 5 13 3 -3 4 -12 1
-19z m116 -3 c-3 -9 -8 -14 -10 -11 -3 3 -2 9 2 15 9 16 15 13 8 -4z m280 -52
c-7 -2 -19 -2 -25 0 -7 3 -2 5 12 5 14 0 19 -2 13 -5z m-279 -39 c3 -8 2 -12
-4 -9 -6 3 -10 10 -10 16 0 14 7 11 14 -7z m38 -43 l20 -20 -20 6 c-11 3 -23
11 -26 19 -7 19 1 18 26 -5z m142 -57 c6 -15 4 -15 -11 -3 -10 7 -20 15 -22
16 -2 2 3 3 11 3 9 0 19 -7 22 -16z m-254 -19 c14 -19 14 -19 -2 -6 -10 7 -18
18 -18 24 0 6 1 8 3 6 1 -2 9 -13 17 -24z m187 -71 c-3 -3 -12 -4 -19 -1 -8 3
-5 6 6 6 11 1 17 -2 13 -5z m63 -14 c11 -8 7 -9 -15 -4 -37 8 -45 14 -19 14
10 0 26 -5 34 -10z m194 -26 c3 -8 2 -12 -4 -9 -6 3 -10 10 -10 16 0 14 7 11
14 -7z m9 -59 c-7 -21 -13 -19 -13 6 0 11 4 18 10 14 5 -3 7 -12 3 -20z m-6
-77 c-3 -8 -6 -5 -6 6 -1 11 2 17 5 13 3 -3 4 -12 1 -19z m-132 -18 c-3 -5
-12 -10 -18 -10 -7 0 -6 4 3 10 19 12 23 12 15 0z m105 -39 c-29 -42 -36 -39
-8 3 13 19 24 33 26 31 3 -2 -6 -18 -18 -34z m-183 -7 c-3 -3 -12 -4 -19 -1
-8 3 -5 6 6 6 11 1 17 -2 13 -5z"/>
<path d="M9190 4859 c-19 -5 -46 -11 -59 -13 -44 -9 -102 -56 -122 -99 -19
-42 -25 -126 -13 -185 4 -17 22 -49 40 -71 45 -52 155 -90 271 -95 12 -1 20
-2 18 -4 -2 -2 8 -20 21 -39 25 -37 25 -51 -1 -105 -11 -23 -11 -26 4 -21 9 4
13 3 9 -2 -4 -4 -20 -9 -35 -11 -16 -1 -28 -3 -28 -4 0 -1 -13 -4 -30 -6 -68
-8 -135 36 -135 88 l0 31 -81 -6 c-45 -4 -84 -8 -86 -10 -6 -7 52 -133 72
-158 33 -39 112 -71 190 -76 83 -6 163 20 220 69 33 30 49 58 23 42 -7 -4 -8
-3 -4 4 4 6 13 9 20 6 10 -4 15 7 19 38 11 73 10 152 -1 178 -14 35 -63 78
-85 75 -9 -2 -15 0 -12 5 6 9 -85 47 -135 56 -19 4 -41 11 -47 17 -7 5 -13 6
-13 2 0 -4 -11 0 -25 9 -14 9 -29 15 -33 12 -9 -5 -14 22 -15 71 -1 62 71 105
138 83 34 -11 87 -51 86 -64 -4 -36 -1 -37 75 -35 60 2 74 5 70 16 -4 8 -6 24
-6 36 0 16 -3 18 -9 9 -7 -11 -9 -11 -14 2 -4 9 -3 15 1 13 33 -11 -27 79 -72
108 -13 9 -34 18 -47 20 -66 13 -133 25 -133 24 -1 -1 -17 -5 -36 -10z m12
-16 c-6 -2 -9 -10 -6 -15 4 -7 2 -8 -4 -4 -18 11 -14 26 6 25 10 0 12 -3 4 -6z
m81 0 c-7 -2 -21 -2 -30 0 -10 3 -4 5 12 5 17 0 24 -2 18 -5z m-133 -13 c-8
-5 -19 -10 -25 -10 -5 0 -3 5 5 10 8 5 20 10 25 10 6 0 3 -5 -5 -10z m197 4
c-3 -3 -12 -4 -19 -1 -8 3 -5 6 6 6 11 1 17 -2 13 -5z m77 -40 c3 -8 2 -12 -4
-9 -6 3 -10 10 -10 16 0 14 7 11 14 -7z m-354 2 c0 -2 -8 -10 -17 -17 -16 -13
-17 -12 -4 4 13 16 21 21 21 13z m225 -36 c-3 -5 -12 -10 -18 -10 -7 0 -6 4 3
10 19 12 23 12 15 0z m163 -15 c-3 -3 -9 2 -12 12 -6 14 -5 15 5 6 7 -7 10
-15 7 -18z m-248 11 c0 -2 -9 -6 -20 -9 -11 -3 -18 -1 -14 4 5 9 34 13 34 5z
m-86 -75 c-4 -17 -9 -30 -11 -27 -3 2 -2 19 2 36 9 41 17 33 9 -9z m-112 -68
c2 -28 0 -49 -4 -46 -5 2 -7 34 -7 71 2 71 6 61 11 -25z m395 41 c-3 -3 -12
-4 -19 -1 -8 3 -5 6 6 6 11 1 17 -2 13 -5z m54 -211 c13 -16 12 -17 -3 -4 -10
7 -18 15 -18 17 0 8 8 3 21 -13z m-178 -30 c-7 -2 -19 -2 -25 0 -7 3 -2 5 12
5 14 0 19 -2 13 -5z m214 -75 c-3 -7 -5 -2 -5 12 0 14 2 19 5 13 2 -7 2 -19 0
-25z m0 -80 c-2 -13 -4 -3 -4 22 0 25 2 35 4 23 2 -13 2 -33 0 -45z m-502 32
c3 -5 1 -10 -4 -10 -6 0 -11 5 -11 10 0 6 2 10 4 10 3 0 8 -4 11 -10z m46
-117 c13 -16 12 -17 -3 -4 -10 7 -18 15 -18 17 0 8 8 3 21 -13z m87 -68 c-3
-3 -9 2 -12 12 -6 14 -5 15 5 6 7 -7 10 -15 7 -18z m55 -12 c-7 -2 -19 -2 -25
0 -7 3 -2 5 12 5 14 0 19 -2 13 -5z"/>
<path d="M5386 4841 c-3 -5 7 -33 22 -63 151 -283 204 -378 213 -384 6 -3 9
-69 8 -157 l-1 -152 64 0 63 0 8 157 8 157 119 222 c66 122 120 224 120 226 0
2 -33 3 -74 3 -79 0 -87 -5 -92 -49 -4 -39 -9 -60 -17 -67 -7 -8 -2 22 8 49
12 29 -3 19 -20 -13 -9 -18 -13 -41 -10 -53 4 -14 3 -17 -2 -9 -7 8 -21 -12
-46 -65 -39 -83 -44 -98 -25 -87 7 4 8 3 4 -5 -4 -6 -11 -9 -16 -6 -4 3 -11
-1 -14 -7 -8 -21 -25 7 -101 165 l-70 146 -72 0 c-39 1 -74 -3 -77 -8z m28
-16 c-4 -8 1 -17 10 -21 9 -3 16 -16 16 -28 0 -18 -3 -16 -20 12 -22 36 -25
52 -10 52 5 0 7 -7 4 -15z m121 -15 c14 -27 14 -30 0 -30 -9 0 -15 6 -14 13 3
25 -2 36 -18 40 -17 4 -17 5 -1 6 10 0 24 -12 33 -29z m373 23 c-10 -2 -26 -2
-35 0 -10 3 -2 5 17 5 19 0 27 -2 18 -5z m75 0 c-7 -2 -21 -2 -30 0 -10 3 -4
5 12 5 17 0 24 -2 18 -5z m-410 -96 c3 -8 -1 -14 -8 -14 -7 0 -11 6 -8 14 3 7
6 13 8 13 2 0 5 -6 8 -13z m299 -119 c-8 -8 -9 -4 -5 13 4 13 8 18 11 10 2 -7
-1 -18 -6 -23z m-232 -8 c0 -5 -2 -10 -4 -10 -3 0 -8 5 -11 10 -3 6 -1 10 4
10 6 0 11 -4 11 -10z m123 -5 c-3 -9 -8 -14 -10 -11 -3 3 -2 9 2 15 9 16 15
13 8 -4z m-189 -58 c4 4 4 -1 0 -10 -3 -10 -7 -17 -8 -15 -1 2 -8 12 -16 23
-14 18 -13 19 1 8 9 -7 19 -10 23 -6z m237 -40 l-24 -22 19 27 c10 14 21 24
23 22 3 -3 -6 -15 -18 -27z m-191 -72 c7 -9 8 -15 2 -15 -5 0 -12 7 -16 15 -3
8 -4 15 -2 15 2 0 9 -7 16 -15z m27 -107 c-3 -8 -6 -5 -6 6 -1 11 2 17 5 13 3
-3 4 -12 1 -19z m100 -70 c-2 -13 -4 -3 -4 22 0 25 2 35 4 23 2 -13 2 -33 0
-45z m-44 -165 c-13 -2 -33 -2 -45 0 -13 2 -3 4 22 4 25 0 35 -2 23 -4z"/>
<path d="M6713 4843 c-14 -5 -17 -62 -7 -100 6 -21 12 -23 118 -25 l111 -3 3
-317 2 -318 75 0 75 0 0 320 0 320 94 0 c52 0 101 3 110 6 12 5 16 21 16 65
l0 59 -292 -1 c-161 0 -299 -3 -305 -6z m435 -10 c-75 -2 -201 -2 -280 0 -79
1 -17 3 137 3 154 0 218 -2 143 -3z m149 -70 c-2 -16 -4 -3 -4 27 0 30 2 43 4
28 2 -16 2 -40 0 -55z m-580 5 c-3 -7 -5 -2 -5 12 0 14 2 19 5 13 2 -7 2 -19
0 -25z m166 -35 c-29 -2 -78 -2 -110 0 -32 2 -8 3 52 3 61 0 87 -1 58 -3z
m362 1 c-70 -8 -173 -8 -168 -1 2 4 48 6 101 5 53 0 84 -3 67 -4z m-288 -76
c-2 -13 -4 -5 -4 17 -1 22 1 32 4 23 2 -10 2 -28 0 -40z m120 -15 c-2 -16 -4
-5 -4 22 0 28 2 40 4 28 2 -13 2 -35 0 -50z m0 -205 c-2 -35 -3 -9 -3 57 0 66
1 94 3 63 2 -32 2 -86 0 -120z m-120 -90 c-2 -13 -4 -5 -4 17 -1 22 1 32 4 23
2 -10 2 -28 0 -40z m120 0 c-3 -8 -6 -5 -6 6 -1 11 2 17 5 13 3 -3 4 -12 1
-19z m0 -100 c-2 -18 -4 -6 -4 27 0 33 2 48 4 33 2 -15 2 -42 0 -60z m-120 35
c-3 -10 -5 -4 -5 12 0 17 2 24 5 18 2 -7 2 -21 0 -30z m120 -160 c-3 -10 -5
-4 -5 12 0 17 2 24 5 18 2 -7 2 -21 0 -30z m-54 -30 c-13 -2 -35 -2 -50 0 -16
2 -5 4 22 4 28 0 40 -2 28 -4z"/>
<path d="M7430 4465 l1 -385 237 2 237 3 3 68 3 67 -164 0 c-191 0 -177 -10
-177 120 l0 75 137 -3 c186 -4 183 -5 183 67 0 44 -4 60 -16 65 -9 3 -76 6
-149 6 -154 0 -155 1 -155 89 0 85 -8 81 171 81 l159 0 0 65 0 65 -235 0 -235
0 0 -385z m225 368 c-144 -3 -201 -7 -207 -16 -5 -8 -8 -7 -8 6 0 16 16 17
208 15 l207 -3 -200 -2z m232 1 c-3 -3 -12 -4 -19 -1 -8 3 -5 6 6 6 11 1 17
-2 13 -5z m-440 -311 c-1 -54 -3 -12 -3 92 0 105 2 149 3 98 2 -51 2 -136 0
-190z m440 240 c-3 -10 -5 -4 -5 12 0 17 2 24 5 18 2 -7 2 -21 0 -30z m-104
-30 c-35 -2 -91 -2 -125 0 -35 2 -7 3 62 3 69 0 97 -1 63 -3z m104 1 c-3 -3
-12 -4 -19 -1 -8 3 -5 6 6 6 11 1 17 -2 13 -5z m-10 -281 c-2 -16 -4 -3 -4 27
0 30 2 43 4 28 2 -16 2 -40 0 -55z m-430 -70 c-3 -10 -5 -4 -5 12 0 17 2 24 5
18 2 -7 2 -21 0 -30z m10 -125 c-3 -8 -6 -5 -6 6 -1 11 2 17 5 13 3 -3 4 -12
1 -19z m110 -40 c-3 -8 -6 -5 -6 6 -1 11 2 17 5 13 3 -3 4 -12 1 -19z m256
-15 c-46 -2 -120 -2 -165 0 -46 1 -9 3 82 3 91 0 128 -2 83 -3z m-75 -110
c-53 -2 -143 -2 -200 0 -57 1 -13 3 97 3 110 0 156 -2 103 -3z m129 1 c-3 -3
-12 -4 -19 -1 -8 3 -5 6 6 6 11 1 17 -2 13 -5z"/>
<path d="M8069 4846 c-2 -2 -2 -175 1 -383 l5 -378 69 -3 69 -3 -6 223 c-6
211 -4 268 12 268 4 0 38 -63 76 -139 38 -77 73 -137 79 -134 5 3 6 1 2 -5 -3
-6 -1 -22 5 -35 9 -20 20 -26 56 -29 24 -2 48 -1 52 2 7 4 73 127 76 140 1 3
14 30 30 60 16 30 30 57 30 60 1 3 13 28 26 55 l24 50 3 -244 c1 -160 6 -249
13 -258 17 -20 115 -18 123 3 3 9 6 182 6 385 l0 369 -69 0 c-76 0 -101 -6
-101 -24 0 -7 -13 -37 -29 -67 -36 -68 -48 -105 -31 -94 9 5 11 4 6 -4 -4 -6
-11 -9 -16 -6 -4 3 -34 -47 -65 -110 -32 -63 -60 -115 -64 -115 -3 0 -51 91
-106 203 -55 111 -104 205 -110 209 -10 8 -159 11 -166 4z m126 -12 c-48 -8
-115 -9 -115 -2 0 5 30 7 68 7 37 -1 58 -3 47 -5z m613 -56 l-2 -63 -3 57 -4
57 -57 4 -57 3 63 2 62 2 -2 -62z m-721 -495 c-1 -98 -2 -20 -2 172 -1 193 1
273 2 178 2 -94 2 -252 0 -350z m167 501 c3 -8 2 -12 -4 -9 -6 3 -10 10 -10
16 0 14 7 11 14 -7z m386 -29 c-6 -8 -8 -20 -4 -27 5 -10 4 -10 -6 -1 -11 10
-11 15 0 28 7 8 15 15 17 15 3 0 0 -7 -7 -15z m-341 -65 c11 -24 11 -24 -3 -6
-9 11 -16 24 -16 30 0 12 5 7 19 -24z m312 3 c-12 -20 -14 -14 -5 12 4 9 9 14
11 11 3 -2 0 -13 -6 -23z m196 -35 c-3 -7 -5 -2 -5 12 0 14 2 19 5 13 2 -7 2
-19 0 -25z m0 -151 c-2 -23 -3 -1 -3 48 0 50 1 68 3 42 2 -26 2 -67 0 -90z
m-456 76 c13 -16 12 -17 -3 -4 -10 7 -18 15 -18 17 0 8 8 3 21 -13z m296 -15
c-3 -8 -6 -5 -6 6 -1 11 2 17 5 13 3 -3 4 -12 1 -19z m50 0 c-3 -8 -6 -5 -6 6
-1 11 2 17 5 13 3 -3 4 -12 1 -19z m-81 -60 c-9 -12 -16 -19 -16 -15 0 11 24
47 28 42 2 -2 -3 -14 -12 -27z m-429 -40 c-3 -7 -5 -2 -5 12 0 14 2 19 5 13 2
-7 2 -19 0 -25z m510 -45 c-2 -16 -4 -5 -4 22 0 28 2 40 4 28 2 -13 2 -35 0
-50z m-284 37 c3 -11 2 -22 -2 -24 -4 -3 -8 6 -9 20 -2 29 4 31 11 4z m182 -2
c-3 -12 -10 -26 -16 -32 -8 -8 -8 -5 0 12 6 12 9 22 6 22 -4 0 -3 5 0 10 10
16 14 11 10 -12z m212 -60 c-2 -13 -4 -5 -4 17 -1 22 1 32 4 23 2 -10 2 -28 0
-40z m-250 -13 c-7 -13 -14 -20 -15 -14 -2 5 2 16 8 24 18 21 20 18 7 -10z
m250 -37 c-3 -8 -6 -5 -6 6 -1 11 2 17 5 13 3 -3 4 -12 1 -19z m0 -80 c-2 -13
-4 -3 -4 22 0 25 2 35 4 23 2 -13 2 -33 0 -45z m-110 -10 c-2 -13 -4 -3 -4 22
0 25 2 35 4 23 2 -13 2 -33 0 -45z m-229 -15 c-10 -2 -28 -2 -40 0 -13 2 -5 4
17 4 22 1 32 -1 23 -4z m339 -50 c-3 -10 -5 -2 -5 17 0 19 2 27 5 18 2 -10 2
-26 0 -35z m0 -70 c-3 -10 -5 -2 -5 17 0 19 2 27 5 18 2 -10 2 -26 0 -35z
m-659 -30 c-10 -2 -28 -2 -40 0 -13 2 -5 4 17 4 22 1 32 -1 23 -4z m635 0
c-13 -2 -33 -2 -45 0 -13 2 -3 4 22 4 25 0 35 -2 23 -4z"/>
<path d="M2305 4250 c3 -5 8 -10 11 -10 2 0 4 5 4 10 0 6 -5 10 -11 10 -5 0
-7 -4 -4 -10z"/>
</g>
</svg>
